<svg width="259" height="291" viewBox="0 0 259 291" fill="none" xmlns="http://www.w3.org/2000/svg">
<path d="M133 135L193.5 82V0L133 27V135Z" fill="#F28532"/>
<path d="M133 135L67 82V0L133 27V135Z" fill="#ED6938"/>
<path d="M54.6601 46C-11.1375 101.803 200.198 99.5 215.66 66C218.66 59.5 217.66 49.5 201.66 46C273.66 89.5 -7.83988 106 54.6601 46Z" fill="white"/>
<path d="M70.791 156.213L68.3301 174.758C67.4805 174.523 66.6309 174.362 65.7812 174.274C64.9316 174.187 64.082 174.143 63.2324 174.143C61.0645 174.143 58.999 174.436 57.0361 175.021C55.0732 175.578 53.3301 176.442 51.8066 177.614C50.3125 178.786 49.1113 180.251 48.2031 182.009C47.3242 183.767 46.8848 185.832 46.8848 188.205C46.8848 189.729 47.1191 191.047 47.5879 192.16C48.0859 193.273 48.7744 194.196 49.6533 194.929C50.5322 195.661 51.5723 196.203 52.7734 196.555C53.9746 196.906 55.293 197.082 56.7285 197.082C57.8125 197.082 58.9404 196.965 60.1123 196.73C61.2842 196.496 62.4414 196.188 63.584 195.808C64.7266 195.427 65.8398 194.987 66.9238 194.489C68.0078 193.991 69.0039 193.479 69.9121 192.951L68.1543 213.605C67.0117 214.191 65.7666 214.719 64.4189 215.188C63.1006 215.627 61.7383 216.022 60.332 216.374C58.9258 216.696 57.5195 216.945 56.1133 217.121C54.707 217.297 53.3594 217.385 52.0703 217.385C48.3496 217.385 44.8779 216.696 41.6553 215.319C38.4326 213.942 35.6348 212.053 33.2617 209.65C30.8887 207.248 29.0137 204.421 27.6367 201.169C26.2891 197.888 25.6152 194.357 25.6152 190.578C25.6152 185.568 26.333 180.852 27.7686 176.428C29.2041 171.975 31.3135 168.078 34.0967 164.738C36.8799 161.398 40.3223 158.762 44.4238 156.828C48.5547 154.895 53.3008 153.928 58.6621 153.928C60.6836 153.928 62.749 154.089 64.8584 154.411C66.9971 154.733 68.9746 155.334 70.791 156.213ZM166.337 157.004L156.054 217.912L131.093 218.439L125.731 186.887L120.37 216.154L95.4092 217.033L85.0381 157.004L106.835 155.07L111.229 191.545L117.118 155.07H134.257L141.112 191.984L144.628 155.07L166.337 157.004ZM233.274 175.637C233.274 177.922 233.069 180.002 232.659 181.877C232.278 183.723 231.663 185.422 230.813 186.975C229.964 188.527 228.865 189.963 227.518 191.281C226.17 192.6 224.544 193.859 222.64 195.061L233.099 213.693L213.323 217.561L206.556 198.84L201.106 199.016L200.315 217.297H181.419C181.565 210.617 181.697 203.967 181.814 197.346C181.961 190.725 182.122 184.074 182.298 177.395C182.356 174.025 182.415 170.686 182.474 167.375C182.532 164.064 182.649 160.725 182.825 157.355C184.876 156.594 186.897 155.964 188.89 155.466C190.882 154.968 192.874 154.587 194.866 154.323C196.888 154.03 198.924 153.84 200.975 153.752C203.055 153.635 205.179 153.576 207.347 153.576C210.687 153.576 213.909 154.045 217.015 154.982C220.149 155.891 222.918 157.268 225.32 159.113C227.723 160.959 229.642 163.259 231.077 166.013C232.542 168.767 233.274 171.975 233.274 175.637ZM213.587 177.043C213.587 175.812 213.411 174.685 213.06 173.659C212.737 172.634 212.239 171.755 211.565 171.022C210.921 170.261 210.101 169.675 209.104 169.265C208.138 168.825 206.995 168.605 205.677 168.605C205.091 168.605 204.52 168.649 203.963 168.737C203.406 168.796 202.864 168.898 202.337 169.045L201.634 185.393H202.688C203.948 185.393 205.223 185.231 206.512 184.909C207.83 184.587 209.002 184.089 210.027 183.415C211.082 182.741 211.932 181.877 212.576 180.822C213.25 179.768 213.587 178.508 213.587 177.043Z" fill="white"/>
<path d="M20.5984 256.685C20.4705 255.396 19.9219 254.395 18.9524 253.681C17.983 252.967 16.6673 252.61 15.0053 252.61C13.8761 252.61 12.9226 252.77 12.1449 253.089C11.3672 253.398 10.7706 253.83 10.3551 254.384C9.95028 254.938 9.74787 255.566 9.74787 256.27C9.72656 256.855 9.84908 257.367 10.1154 257.804C10.3924 258.24 10.7706 258.619 11.25 258.938C11.7294 259.247 12.2834 259.519 12.9119 259.753C13.5405 259.977 14.2116 260.169 14.9254 260.328L17.8658 261.032C19.2933 261.351 20.6037 261.777 21.7969 262.31C22.9901 262.843 24.0234 263.498 24.897 264.276C25.7706 265.053 26.4471 265.969 26.9265 267.024C27.4165 268.079 27.6669 269.288 27.6776 270.652C27.6669 272.654 27.1555 274.391 26.1435 275.861C25.142 277.321 23.6932 278.455 21.7969 279.265C19.9112 280.064 17.6367 280.463 14.9734 280.463C12.3313 280.463 10.0302 280.059 8.06996 279.249C6.12038 278.439 4.59695 277.241 3.49965 275.653C2.413 274.055 1.84304 272.079 1.78977 269.725H8.48544C8.56001 270.822 8.87429 271.738 9.42827 272.473C9.9929 273.198 10.744 273.746 11.6815 274.119C12.6296 274.482 13.7003 274.663 14.8935 274.663C16.0653 274.663 17.0827 274.492 17.9457 274.151C18.8192 273.81 19.4957 273.336 19.9751 272.729C20.4545 272.122 20.6942 271.424 20.6942 270.636C20.6942 269.901 20.4759 269.283 20.0391 268.782C19.6129 268.281 18.9844 267.855 18.1534 267.504C17.3331 267.152 16.3263 266.832 15.1332 266.545L11.5696 265.65C8.81037 264.979 6.63175 263.929 5.03374 262.502C3.43572 261.074 2.64205 259.151 2.6527 256.733C2.64205 254.751 3.16939 253.02 4.23473 251.539C5.31072 250.059 6.78622 248.903 8.66122 248.072C10.5362 247.241 12.6669 246.825 15.0533 246.825C17.4822 246.825 19.6023 247.241 21.4134 248.072C23.2351 248.903 24.652 250.059 25.6641 251.539C26.6761 253.02 27.1982 254.735 27.2301 256.685H20.5984ZM39.0818 280V247.273H61.1343V252.978H46.0012V260.776H59.9997V266.481H46.0012V274.295H61.1982V280H39.0818ZM95.0865 257.852C94.8627 257.074 94.5485 256.387 94.1436 255.79C93.7388 255.183 93.2434 254.672 92.6575 254.256C92.0822 253.83 91.4217 253.505 90.676 253.281C89.9409 253.058 89.1259 252.946 88.231 252.946C86.5584 252.946 85.0882 253.361 83.8205 254.192C82.5634 255.023 81.5833 256.232 80.8801 257.82C80.177 259.396 79.8255 261.325 79.8255 263.604C79.8255 265.884 80.1717 267.823 80.8642 269.421C81.5566 271.019 82.5368 272.239 83.8045 273.081C85.0723 273.912 86.5691 274.327 88.2949 274.327C89.861 274.327 91.198 274.05 92.3059 273.496C93.4245 272.931 94.2768 272.138 94.8628 271.115C95.4593 270.092 95.7576 268.883 95.7576 267.488L97.1639 267.695H88.7264V262.486H102.421V266.609C102.421 269.485 101.814 271.957 100.6 274.023C99.3851 276.08 97.7125 277.667 95.5819 278.786C93.4512 279.893 91.0115 280.447 88.263 280.447C85.1948 280.447 82.4995 279.771 80.177 278.418C77.8546 277.054 76.0435 275.121 74.7438 272.617C73.4547 270.103 72.8102 267.12 72.8102 263.668C72.8102 261.016 73.1937 258.651 73.9608 256.573C74.7385 254.485 75.8251 252.717 77.2207 251.268C78.6163 249.819 80.2409 248.716 82.0946 247.96C83.9483 247.203 85.9565 246.825 88.1191 246.825C89.9728 246.825 91.6987 247.097 93.2967 247.64C94.8947 248.173 96.3116 248.929 97.5474 249.909C98.7939 250.89 99.8113 252.056 100.6 253.409C101.388 254.751 101.894 256.232 102.118 257.852H95.0865ZM134.584 247.273H141.503V268.526C141.503 270.913 140.933 273.001 139.793 274.79C138.664 276.58 137.082 277.976 135.047 278.977C133.012 279.968 130.642 280.463 127.936 280.463C125.219 280.463 122.844 279.968 120.809 278.977C118.774 277.976 117.192 276.58 116.063 274.79C114.934 273.001 114.369 270.913 114.369 268.526V247.273H121.288V267.935C121.288 269.181 121.56 270.289 122.103 271.259C122.657 272.228 123.435 272.99 124.436 273.544C125.438 274.098 126.604 274.375 127.936 274.375C129.278 274.375 130.445 274.098 131.436 273.544C132.437 272.99 133.209 272.228 133.753 271.259C134.307 270.289 134.584 269.181 134.584 267.935V247.273ZM153.946 280V247.273H166.858C169.33 247.273 171.439 247.715 173.186 248.599C174.944 249.473 176.281 250.714 177.197 252.322C178.124 253.92 178.587 255.801 178.587 257.963C178.587 260.137 178.119 262.006 177.181 263.572C176.244 265.128 174.885 266.321 173.106 267.152C171.338 267.983 169.196 268.398 166.682 268.398H158.037V262.837H165.564C166.885 262.837 167.982 262.656 168.855 262.294C169.729 261.932 170.379 261.388 170.805 260.664C171.242 259.94 171.46 259.039 171.46 257.963C171.46 256.877 171.242 255.961 170.805 255.215C170.379 254.469 169.724 253.904 168.839 253.521C167.966 253.127 166.863 252.93 165.532 252.93H160.865V280H153.946ZM171.62 265.107L179.754 280H172.115L164.157 265.107H171.62ZM220.302 263.636C220.302 267.205 219.625 270.241 218.272 272.745C216.93 275.249 215.098 277.161 212.775 278.482C210.463 279.792 207.864 280.447 204.977 280.447C202.069 280.447 199.458 279.787 197.147 278.466C194.835 277.145 193.008 275.233 191.665 272.729C190.323 270.225 189.652 267.195 189.652 263.636C189.652 260.067 190.323 257.031 191.665 254.528C193.008 252.024 194.835 250.117 197.147 248.807C199.458 247.486 202.069 246.825 204.977 246.825C207.864 246.825 210.463 247.486 212.775 248.807C215.098 250.117 216.93 252.024 218.272 254.528C219.625 257.031 220.302 260.067 220.302 263.636ZM213.287 263.636C213.287 261.325 212.94 259.375 212.248 257.788C211.566 256.2 210.602 254.996 209.355 254.176C208.109 253.356 206.65 252.946 204.977 252.946C203.304 252.946 201.845 253.356 200.598 254.176C199.352 254.996 198.382 256.2 197.69 257.788C197.008 259.375 196.667 261.325 196.667 263.636C196.667 265.948 197.008 267.898 197.69 269.485C198.382 271.072 199.352 272.276 200.598 273.097C201.845 273.917 203.304 274.327 204.977 274.327C206.65 274.327 208.109 273.917 209.355 273.097C210.602 272.276 211.566 271.072 212.248 269.485C212.94 267.898 213.287 265.948 213.287 263.636ZM249.931 256.685C249.804 255.396 249.255 254.395 248.285 253.681C247.316 252.967 246 252.61 244.338 252.61C243.209 252.61 242.256 252.77 241.478 253.089C240.7 253.398 240.104 253.83 239.688 254.384C239.283 254.938 239.081 255.566 239.081 256.27C239.06 256.855 239.182 257.367 239.448 257.804C239.725 258.24 240.104 258.619 240.583 258.938C241.062 259.247 241.616 259.519 242.245 259.753C242.873 259.977 243.545 260.169 244.258 260.328L247.199 261.032C248.626 261.351 249.937 261.777 251.13 262.31C252.323 262.843 253.356 263.498 254.23 264.276C255.104 265.053 255.78 265.969 256.26 267.024C256.75 268.079 257 269.288 257.011 270.652C257 272.654 256.489 274.391 255.476 275.861C254.475 277.321 253.026 278.455 251.13 279.265C249.244 280.064 246.97 280.463 244.306 280.463C241.664 280.463 239.363 280.059 237.403 279.249C235.453 278.439 233.93 277.241 232.833 275.653C231.746 274.055 231.176 272.079 231.123 269.725H237.818C237.893 270.822 238.207 271.738 238.761 272.473C239.326 273.198 240.077 273.746 241.014 274.119C241.963 274.482 243.033 274.663 244.226 274.663C245.398 274.663 246.416 274.492 247.279 274.151C248.152 273.81 248.829 273.336 249.308 272.729C249.788 272.122 250.027 271.424 250.027 270.636C250.027 269.901 249.809 269.283 249.372 268.782C248.946 268.281 248.317 267.855 247.486 267.504C246.666 267.152 245.659 266.832 244.466 266.545L240.903 265.65C238.143 264.979 235.965 263.929 234.367 262.502C232.769 261.074 231.975 259.151 231.986 256.733C231.975 254.751 232.502 253.02 233.568 251.539C234.644 250.059 236.119 248.903 237.994 248.072C239.869 247.241 242 246.825 244.386 246.825C246.815 246.825 248.935 247.241 250.746 248.072C252.568 248.903 253.985 250.059 254.997 251.539C256.009 253.02 256.531 254.735 256.563 256.685H249.931Z" fill="#F28532"/>
</svg>
