<svg width="175" height="202" viewBox="0 0 175 202" fill="none" xmlns="http://www.w3.org/2000/svg">
<path d="M91 135L151.5 82V0L91 27V135Z" fill="#F28532"/>
<path d="M91 135L25 82V0L91 27V135Z" fill="#ED6938"/>
<path d="M12.6601 46C-53.1375 101.803 158.198 99.5 173.66 66C176.66 59.5 175.66 49.5 159.66 46C231.66 89.5 -49.8399 106 12.6601 46Z" fill="white"/>
<path d="M57.9834 148.241L56.4795 159.574C55.9603 159.431 55.4411 159.333 54.9219 159.279C54.4027 159.225 53.8835 159.198 53.3643 159.198C52.0394 159.198 50.7772 159.377 49.5776 159.735C48.3781 160.076 47.3128 160.604 46.3818 161.32C45.4688 162.036 44.7347 162.931 44.1797 164.005C43.6426 165.08 43.374 166.342 43.374 167.792C43.374 168.723 43.5173 169.529 43.8037 170.209C44.1081 170.889 44.5288 171.453 45.0659 171.901C45.603 172.348 46.2386 172.68 46.9727 172.895C47.7067 173.109 48.5124 173.217 49.3896 173.217C50.0521 173.217 50.7414 173.145 51.4575 173.002C52.1737 172.859 52.8809 172.671 53.5791 172.438C54.2773 172.205 54.9577 171.937 55.6201 171.632C56.2826 171.328 56.8913 171.015 57.4463 170.692L56.3721 183.314C55.6738 183.673 54.9129 183.995 54.0894 184.281C53.2837 184.55 52.4512 184.792 51.5918 185.006C50.7324 185.203 49.873 185.355 49.0137 185.463C48.1543 185.57 47.3307 185.624 46.543 185.624C44.2692 185.624 42.1476 185.203 40.1782 184.362C38.2088 183.52 36.499 182.366 35.0488 180.897C33.5986 179.429 32.4528 177.702 31.6113 175.714C30.7878 173.709 30.376 171.552 30.376 169.242C30.376 166.181 30.8146 163.298 31.6919 160.595C32.5692 157.873 33.8582 155.492 35.5591 153.451C37.2599 151.41 39.3636 149.799 41.8701 148.617C44.3945 147.436 47.2949 146.845 50.5713 146.845C51.8066 146.845 53.0688 146.943 54.3579 147.14C55.6649 147.337 56.8734 147.704 57.9834 148.241ZM116.373 148.725L110.088 185.946L94.8345 186.269L91.5581 166.986L88.2817 184.872L73.0278 185.409L66.6899 148.725L80.0103 147.543L82.6958 169.833L86.2944 147.543H96.7681L100.958 170.102L103.106 147.543L116.373 148.725ZM157.279 160.111C157.279 161.508 157.153 162.779 156.903 163.925C156.67 165.053 156.294 166.091 155.775 167.04C155.256 167.989 154.584 168.866 153.761 169.672C152.937 170.478 151.944 171.247 150.78 171.981L157.171 183.368L145.086 185.731L140.951 174.291L137.621 174.398L137.137 185.57H125.589C125.679 181.488 125.759 177.424 125.831 173.378C125.921 169.332 126.019 165.268 126.126 161.186C126.162 159.127 126.198 157.086 126.234 155.062C126.27 153.039 126.341 150.998 126.449 148.939C127.702 148.474 128.937 148.089 130.155 147.785C131.372 147.48 132.59 147.248 133.807 147.086C135.042 146.907 136.287 146.791 137.54 146.737C138.811 146.666 140.109 146.63 141.434 146.63C143.475 146.63 145.444 146.916 147.342 147.489C149.258 148.044 150.95 148.886 152.418 150.014C153.886 151.142 155.059 152.547 155.936 154.23C156.831 155.913 157.279 157.873 157.279 160.111ZM145.248 160.971C145.248 160.219 145.14 159.529 144.925 158.903C144.728 158.276 144.424 157.739 144.012 157.292C143.618 156.826 143.117 156.468 142.508 156.217C141.917 155.949 141.219 155.814 140.414 155.814C140.056 155.814 139.706 155.841 139.366 155.895C139.026 155.931 138.695 155.993 138.373 156.083L137.943 166.073H138.587C139.357 166.073 140.136 165.975 140.924 165.778C141.729 165.581 142.446 165.277 143.072 164.865C143.717 164.453 144.236 163.925 144.63 163.28C145.042 162.636 145.248 161.866 145.248 160.971Z" fill="white"/>
</svg>
